HIERARCHY
ROOT Hips
{
	OFFSET 0.000000 0.000000 0.000000
	CHANNELS 6 Xposition Yposition Zposition Xrotation Yrotation Zrotation
	JOINT LeftUpLeg_virtual
	{
		OFFSET 0.000000 0.000000 0.000000
		CHANNELS 3 Xrotation Yrotation Zrotation
		JOINT LeftUpLeg
		{
			OFFSET 15.427100 -6.655098 0.678600
			CHANNELS 3 Xrotation Yrotation Zrotation
			JOINT LeftLeg
			{
				OFFSET 4.081073 -39.591068 13.024000
				CHANNELS 3 Xrotation Yrotation Zrotation
				JOINT LeftFoot
				{
					OFFSET -4.081074 -37.707932 -15.979700
					CHANNELS 3 Xrotation Yrotation Zrotation
					JOINT LeftToeBase
					{
						OFFSET 5.346399 -15.068900 20.645000
						CHANNELS 3 Xrotation Yrotation Zrotation
						JOINT LeftToe_End
						{
							OFFSET 2.754700 0.931300 11.300900
							CHANNELS 3 Xrotation Yrotation Zrotation
							End Site
							{
								OFFSET 0 0 0
							}
						}
					}
				}
			}
		}
	}
	JOINT RightUpLeg_virtual
	{
		OFFSET 0.000000 0.000000 0.000000
		CHANNELS 3 Xrotation Yrotation Zrotation
		JOINT RightUpLeg
		{
			OFFSET -15.569500 -6.655098 0.678600
			CHANNELS 3 Xrotation Yrotation Zrotation
			JOINT RightLeg
			{
				OFFSET -4.081825 -39.591045 13.023800
				CHANNELS 3 Xrotation Yrotation Zrotation
				JOINT RightFoot
				{
					OFFSET 4.081824 -37.707954 -15.979600
					CHANNELS 3 Xrotation Yrotation Zrotation
					JOINT RightToeBase
					{
						OFFSET -5.346400 -15.068900 20.645000
						CHANNELS 3 Xrotation Yrotation Zrotation
						JOINT RightToe_End
						{
							OFFSET -2.754700 0.931300 11.300900
							CHANNELS 3 Xrotation Yrotation Zrotation
							End Site
							{
								OFFSET 0 0 0
							}
						}
					}
				}
			}
		}
	}
	JOINT Spine_virtual
	{
		OFFSET 0.000000 0.000000 0.000000
		CHANNELS 3 Xrotation Yrotation Zrotation
		JOINT Spine
		{
			OFFSET -0.279200 12.230698 -2.892100
			CHANNELS 3 Xrotation Yrotation Zrotation
			JOINT Spine1
			{
				OFFSET -0.232667 10.192268 -1.242267
				CHANNELS 3 Xrotation Yrotation Zrotation
				JOINT Spine1_split
				{
					OFFSET -0.232667 10.192268 -1.242267
					CHANNELS 3 Xrotation Yrotation Zrotation
					JOINT Spine2
					{
						OFFSET -0.232667 10.192268 -1.242267
						CHANNELS 3 Xrotation Yrotation Zrotation
						JOINT Neck_virtual
						{
							OFFSET 0.000000 0.000000 0.000000
							CHANNELS 3 Xrotation Yrotation Zrotation
							JOINT Neck
							{
								OFFSET -0.418800 17.814194 8.416900
								CHANNELS 3 Xrotation Yrotation Zrotation
								JOINT Head
								{
									OFFSET 0.000000 7.031097 3.806800
									CHANNELS 3 Xrotation Yrotation Zrotation
									JOINT HeadTop_End
									{
										OFFSET 0.000000 24.646606 12.978600
										CHANNELS 3 Xrotation Yrotation Zrotation
										End Site
										{
											OFFSET 0 0 0
										}
									}
								}
							}
						}
						JOINT LeftShoulder_virtual
						{
							OFFSET 0.000000 0.000000 0.000000
							CHANNELS 3 Xrotation Yrotation Zrotation
							JOINT LeftShoulder
							{
								OFFSET 8.476499 7.247704 -3.868750
								CHANNELS 3 Xrotation Yrotation Zrotation
								JOINT LeftShoulder_split
								{
									OFFSET 8.476499 7.247704 -3.868750
									CHANNELS 3 Xrotation Yrotation Zrotation
									JOINT LeftArm
									{
										OFFSET 9.308998 -2.777710 0.208600
										CHANNELS 3 Xrotation Yrotation Zrotation
										JOINT LeftForeArm
										{
											OFFSET 29.972298 0.000000 0.000000
											CHANNELS 3 Xrotation Yrotation Zrotation
											JOINT LeftHand
											{
												OFFSET 26.026505 0.000000 0.000000
												CHANNELS 3 Xrotation Yrotation Zrotation
												End Site
												{
													OFFSET 0 0 0
												}
											}
										}
									}
								}
							}
						}
						JOINT RightShoulder_virtual
						{
							OFFSET 0.000000 0.000000 0.000000
							CHANNELS 3 Xrotation Yrotation Zrotation
							JOINT RightShoulder
							{
								OFFSET -7.570500 7.247704 -3.868750
								CHANNELS 3 Xrotation Yrotation Zrotation
								JOINT RightShoulder_split
								{
									OFFSET -7.570500 7.247704 -3.868750
									CHANNELS 3 Xrotation Yrotation Zrotation
									JOINT RightArm
									{
										OFFSET -9.308998 -2.777710 0.208500
										CHANNELS 3 Xrotation Yrotation Zrotation
										JOINT RightForeArm
										{
											OFFSET -29.972300 0.000000 0.000000
											CHANNELS 3 Xrotation Yrotation Zrotation
											JOINT RightHand
											{
												OFFSET -26.026505 0.000000 0.000000
												CHANNELS 3 Xrotation Yrotation Zrotation
												End Site
												{
													OFFSET 0 0 0
												}
											}
										}
									}
								}
							}
						}
					}
				}
			}
		}
	}
}
MOTION
Frames: 11
Frame Time: 0.03333333
-0.968270 75.019897 -5.231531 0.000000 0.000000 0.000000 7.192145 -56.052207 7.546744 -42.407852 16.618221 30.242462 45.860284 -6.067167 -9.853643 -13.106272 16.341868 -7.010622 -0.475020 1.209194 -1.062960 0.000000 0.000000 0.000000 6.810538 -53.335964 6.804689 -19.918440 -12.016447 -27.515058 50.226462 24.813090 3.334843 -37.565948 -16.067791 15.667786 -2.517557 10.907026 -15.186873 0.000000 0.000000 0.000000 4.962355 -51.170305 3.120420 7.276135 -2.151519 1.012204 3.981012 4.929854 -1.909936 -0.178603 -0.499646 -0.036227 0.000000 0.000000 0.000000 17.577779 6.806210 -1.655879 -2.443586 14.974324 10.856704 -31.782687 -1.285982 31.866128 0.000000 0.000000 0.000000 12.986585 6.680617 -3.267919 -20.134045 -1.424745 -8.434464 -5.014831 1.235318 -0.918684 18.513989 -20.731216 -10.298610 11.261885 -63.537807 -0.458615 0.000000 0.000000 0.000000 16.275330 5.725258 -5.959645 -21.679408 18.836825 12.055020 -11.100189 -10.122920 -4.626544 -9.173685 -1.311968 49.256599 78.212605 51.565582 -45.006876 0.000000 0.000000 0.000000 
-0.887735 75.024536 -5.159906 0.000000 0.000000 0.000000 7.221017 -56.638172 7.832368 -42.693836 16.755661 30.097153 46.316165 -5.928859 -9.664129 -12.941284 16.288919 -7.041201 -0.506775 1.226589 -1.114035 0.000000 0.000000 0.000000 7.055172 -54.160613 7.148423 -20.127563 -12.636337 -27.455974 50.064132 24.768370 3.451797 -37.834060 -15.920724 15.018739 -1.903572 10.809481 -15.060115 0.000000 0.000000 0.000000 5.460584 -51.663732 4.029131 6.820459 -2.064310 0.813485 3.829372 4.957000 -1.938016 -0.116044 -0.528870 0.027653 0.000000 0.000000 0.000000 17.697056 6.809042 -1.594363 -1.565018 15.014429 10.583689 -32.087170 -1.582391 32.049874 0.000000 0.000000 0.000000 13.013868 6.749707 -3.254215 -19.822539 -1.809428 -8.098993 -4.817398 0.411650 -1.706420 19.470209 -21.801711 -10.910229 10.517989 -62.988428 -0.364129 0.000000 0.000000 0.000000 16.137533 5.597234 -6.089190 -20.958688 18.577119 12.008784 -9.723688 -9.065379 -3.617722 -9.087690 -1.362034 49.058257 76.668955 51.068491 -43.617120 0.000000 0.000000 0.000000 
-0.886251 75.052376 -5.108854 0.000000 0.000000 0.000000 7.156434 -56.991215 7.924847 -43.049091 16.765500 30.116459 46.575166 -5.770505 -9.457315 -12.857675 15.842354 -6.976062 -0.631995 1.187223 -1.063458 0.000000 0.000000 0.000000 7.268364 -54.841307 7.452828 -20.580058 -13.255962 -27.528174 50.296086 24.873351 3.553199 -37.776246 -15.679287 14.815853 -3.008990 10.898464 -15.210012 0.000000 0.000000 0.000000 5.462917 -52.087576 4.609204 6.310380 -1.682973 0.654408 3.614945 5.166881 -1.895405 -0.075135 -0.417894 0.064768 0.000000 0.000000 0.000000 17.300272 6.948875 -1.650163 0.103425 14.688819 10.148126 -32.221072 -2.401001 31.579154 0.000000 0.000000 0.000000 12.735163 7.030288 -3.222316 -19.502914 -2.813300 -7.640244 -4.466361 -0.452975 -1.844788 20.493740 -23.754860 -12.085253 10.085225 -59.764237 0.180584 0.000000 0.000000 0.000000 16.163825 5.722472 -6.131034 -19.846643 17.966727 11.028952 -8.474088 -8.088552 -2.691357 -8.875687 -0.893071 48.495439 75.473283 51.475912 -43.085120 0.000000 0.000000 0.000000 
-0.959285 75.067772 -5.123926 0.000000 0.000000 0.000000 7.066789 -57.010472 7.818194 -43.623848 16.567063 30.440306 46.689787 -5.711907 -9.369338 -12.549471 15.014276 -7.200153 -1.163805 1.117023 -0.868264 0.000000 0.000000 0.000000 7.293967 -55.132467 7.562344 -21.144007 -13.794176 -27.670662 50.628569 25.083311 3.582237 -37.829132 -15.380976 14.766379 -5.049551 11.068952 -15.641242 0.000000 0.000000 0.000000 4.988366 -52.361774 4.752858 6.000200 -1.155876 0.541320 3.410561 5.430166 -1.731511 -0.059143 -0.264254 0.046559 0.000000 0.000000 0.000000 16.548249 7.163652 -1.752725 2.171912 14.078401 9.758062 -32.347093 -3.477141 30.437652 0.000000 0.000000 0.000000 12.241644 7.372312 -3.070213 -19.176306 -4.384433 -7.059459 -4.347875 -1.031172 -2.051377 21.242419 -26.231355 -13.504129 9.602548 -54.535891 0.799422 0.000000 0.000000 0.000000 16.212122 6.011937 -5.979777 -18.316710 17.067270 9.153919 -7.816830 -7.662106 -2.077637 -8.519350 -0.104758 47.902886 74.785053 52.693827 -43.504982 0.000000 0.000000 0.000000 
-1.070961 75.058334 -5.221769 0.000000 0.000000 0.000000 6.953857 -56.833147 7.566652 -44.512189 16.000748 30.992000 46.968687 -5.784554 -9.422553 -11.749986 13.961089 -7.842013 -1.992315 1.054091 -0.552556 0.000000 0.000000 0.000000 7.193714 -55.066546 7.518491 -21.659824 -14.193589 -27.777432 51.111009 25.323883 3.503087 -38.300754 -15.060145 14.502245 -6.426632 11.114946 -16.407566 0.000000 0.000000 0.000000 4.358303 -52.280665 4.710142 5.943163 -0.690457 0.437738 3.240978 5.581577 -1.441594 -0.051823 -0.118832 -0.005730 0.000000 0.000000 0.000000 15.677297 7.348286 -1.750585 4.386897 13.335322 9.532477 -32.729522 -4.456921 28.804841 0.000000 0.000000 0.000000 11.659057 7.602635 -2.797811 -18.789700 -6.366191 -6.472263 -4.193819 -0.345946 -2.829411 22.001499 -29.081829 -14.755471 8.758405 -48.248504 1.140307 0.000000 0.000000 0.000000 16.060705 6.332535 -5.560769 -16.440665 15.986488 6.712356 -7.437228 -7.215331 -1.717761 -8.262333 0.796996 47.756348 74.344184 54.234216 -44.418247 0.000000 0.000000 0.000000 
-1.205757 74.949562 -5.246199 0.000000 0.000000 0.000000 6.886540 -56.527233 7.273855 -45.625660 15.165522 31.566566 47.579200 -5.777578 -9.610139 -10.592410 13.022616 -8.532220 -2.431101 1.015450 -0.306881 0.000000 0.000000 0.000000 7.153061 -54.649095 7.438856 -22.099232 -14.397834 -27.832556 51.843400 25.568914 3.396532 -38.980665 -14.847440 14.173393 -6.543905 10.962413 -17.497027 0.000000 0.000000 0.000000 3.772103 -51.850251 4.682913 5.974525 -0.447894 0.299593 3.101872 5.525533 -1.094077 -0.008811 0.020377 -0.051775 0.000000 0.000000 0.000000 14.920007 7.437008 -1.585509 6.653938 12.619863 9.488747 -33.424637 -4.917098 26.960821 0.000000 0.000000 0.000000 11.127029 7.619435 -2.483972 -18.319795 -8.514906 -6.033365 -3.928920 0.948743 -4.178285 23.358043 -31.589861 -15.239848 7.615048 -41.480132 1.204355 0.000000 0.000000 0.000000 15.573928 6.576284 -4.893638 -14.323563 14.844276 3.975892 -7.030191 -6.164367 -1.654084 -8.308018 1.815106 48.531342 73.516079 55.418065 -45.047478 0.000000 0.000000 0.000000 
-1.419891 74.695251 -5.197123 0.000000 0.000000 0.000000 7.124381 -56.227832 7.188591 -46.584329 14.271889 31.814864 48.468614 -5.353913 -9.816315 -9.768682 12.516611 -8.503120 -2.229183 0.996879 -0.212825 0.000000 0.000000 0.000000 7.409505 -53.998038 7.509016 -22.434222 -14.371106 -27.759689 52.699814 25.870988 3.201728 -39.529733 -14.815859 14.315037 -6.259350 10.762403 -18.804006 0.000000 0.000000 0.000000 3.438902 -51.332355 4.723035 5.928603 -0.430704 0.132491 3.002819 5.302958 -0.768807 0.038908 0.129968 -0.084885 0.000000 0.000000 0.000000 14.393927 7.435011 -1.270641 8.977766 12.059794 9.563273 -34.744114 -4.631424 25.349839 0.000000 0.000000 0.000000 10.774797 7.426280 -2.198667 -17.779945 -10.549958 -5.707069 -4.044103 2.293563 -5.956733 26.114038 -33.258213 -14.520986 6.229150 -34.967051 1.052262 0.000000 0.000000 0.000000 14.702826 6.669874 -4.129091 -12.173360 13.836565 1.173662 -7.083751 -4.618469 -1.740940 -8.695348 3.184576 50.195716 71.387436 55.542398 -44.358192 0.000000 0.000000 0.000000 
-1.700761 74.353447 -5.079866 0.000000 0.000000 0.000000 7.799225 -55.957595 7.522649 -47.076625 13.569124 31.500720 49.291471 -4.437151 -9.902551 -9.704623 12.432023 -7.663141 -1.854104 1.008577 -0.163411 0.000000 0.000000 0.000000 8.179966 -53.459167 7.948756 -22.533018 -14.087614 -27.476412 53.430777 26.158971 2.811590 -39.969820 -15.028211 14.978299 -6.033165 10.624907 -20.173877 0.000000 0.000000 0.000000 3.677703 -50.903426 4.901771 5.610161 -0.560061 0.014121 2.864957 5.070206 -0.555145 0.073740 0.160231 -0.083899 0.000000 0.000000 0.000000 14.088205 7.402965 -0.866332 11.376441 11.694146 9.624560 -36.852532 -3.819769 24.317511 0.000000 0.000000 0.000000 10.485692 7.175006 -2.037075 -17.229671 -12.160154 -5.570852 -4.821461 3.686936 -7.005668 29.884383 -34.077917 -12.783479 5.001599 -29.739354 0.911106 0.000000 0.000000 0.000000 13.712829 6.679161 -3.472797 -10.184938 12.988787 -1.562307 -7.342470 -3.127582 -1.696372 -9.258374 5.292589 52.434198 67.502077 54.062347 -41.870678 0.000000 0.000000 0.000000 
-1.995988 74.069748 -4.820581 0.000000 0.000000 0.000000 8.929049 -55.809558 8.398731 -47.053508 13.130937 30.734540 49.612636 -3.415307 -9.824078 -9.934665 12.341805 -6.950691 -2.184329 1.056408 0.085453 0.000000 0.000000 0.000000 9.339404 -53.101114 8.799213 -22.422454 -13.670713 -27.173155 53.816075 26.318042 2.282458 -40.457044 -15.488304 15.661595 -5.050257 10.418868 -21.374942 0.000000 0.000000 0.000000 4.562205 -50.777802 5.199131 4.928154 -0.731343 -0.020238 2.642483 5.027865 -0.487552 0.131903 0.099986 -0.072801 0.000000 0.000000 0.000000 13.891043 7.434947 -0.527385 13.689274 11.488421 9.659056 -39.699754 -2.772159 24.176453 0.000000 0.000000 0.000000 10.150736 7.045679 -2.091611 -16.807187 -13.000165 -5.589593 -6.128138 4.427784 -7.169256 33.689594 -33.876987 -10.644106 4.364390 -26.952312 0.984693 0.000000 0.000000 0.000000 12.893089 6.735273 -3.096530 -8.542298 12.214618 -4.014560 -7.756081 -2.408970 -1.566736 -9.605508 8.515228 54.862067 62.758695 50.971243 -38.442402 0.000000 0.000000 0.000000 
-2.233263 73.892982 -4.477247 0.000000 0.000000 0.000000 10.324520 -55.721517 9.776185 -46.536698 12.853082 29.450280 49.386024 -2.399201 -9.697540 -10.208172 11.971118 -6.463597 -3.588791 1.062528 0.649627 0.000000 0.000000 0.000000 10.789058 -53.022144 10.107582 -22.299089 -13.266804 -27.120245 53.735728 26.250990 1.747050 -41.087310 -16.170236 15.916158 -2.862125 10.048896 -22.156135 0.000000 0.000000 0.000000 5.925572 -50.673167 5.604744 4.018117 -0.838181 -0.072043 2.346374 5.241652 -0.561737 0.171283 -0.033158 -0.024373 0.000000 0.000000 0.000000 13.716917 7.619194 -0.403028 15.635116 11.355132 9.721145 -43.047062 -1.872106 25.049391 0.000000 0.000000 0.000000 9.804383 7.133229 -2.372478 -16.588216 -13.008144 -5.523254 -7.661601 4.872709 -6.586339 36.246352 -33.151853 -8.911240 4.253445 -27.096134 1.198446 0.000000 0.000000 0.000000 12.311635 6.942742 -3.044995 -7.375821 11.462167 -5.967780 -8.438387 -2.506248 -1.365350 -9.289556 13.003259 57.089532 58.243612 46.826606 -35.030654 0.000000 0.000000 0.000000 
-2.378324 73.833824 -4.123283 0.000000 0.000000 0.000000 11.617091 -55.488009 11.357791 -45.865560 12.620931 27.691948 48.974482 -1.508801 -9.589397 -10.185953 11.225751 -6.073174 -5.226944 1.015978 1.383769 0.000000 0.000000 0.000000 12.256889 -53.114669 11.731707 -22.218412 -12.931250 -27.570933 53.269871 25.984789 1.375447 -41.585907 -17.037449 15.857368 -0.387200 9.721037 -22.436173 0.000000 0.000000 0.000000 7.489880 -50.378755 6.125303 3.126306 -0.934293 -0.183568 2.024315 5.646054 -0.753566 0.210266 -0.259180 0.043078 0.000000 0.000000 0.000000 13.545133 7.921526 -0.551268 16.804065 11.203606 9.815375 -46.380270 -1.411864 26.949066 0.000000 0.000000 0.000000 9.482130 7.385455 -2.829914 -16.631010 -12.367105 -5.184818 -9.119214 5.252086 -5.548637 36.504745 -32.427071 -8.013996 4.437310 -29.257969 1.215789 0.000000 0.000000 0.000000 11.985015 7.284551 -3.241541 -6.657274 10.641545 -7.337932 -9.134698 -2.967480 -0.890923 -7.845937 18.296197 58.796434 54.608722 42.710720 -32.166994 0.000000 0.000000 0.000000 
